%TF.GenerationSoftware,KiCad,Pcbnew,8.0.2*%
%TF.CreationDate,2024-09-05T16:45:02+09:00*%
%TF.ProjectId,ESP32_PCB,45535033-325f-4504-9342-2e6b69636164,rev?*%
%TF.SameCoordinates,Original*%
%TF.FileFunction,Copper,L1,Top*%
%TF.FilePolarity,Positive*%
%FSLAX46Y46*%
G04 Gerber Fmt 4.6, Leading zero omitted, Abs format (unit mm)*
G04 Created by KiCad (PCBNEW 8.0.2) date 2024-09-05 16:45:02*
%MOMM*%
%LPD*%
G01*
G04 APERTURE LIST*
%TA.AperFunction,ViaPad*%
%ADD10C,1.500000*%
%TD*%
G04 APERTURE END LIST*
D10*
%TO.N,*%
X69640000Y-94890000D03*
X74720000Y-91765000D03*
X72180000Y-94910000D03*
X77260000Y-91760000D03*
X77260000Y-94890000D03*
X69640000Y-91770000D03*
X74710000Y-94930000D03*
X72170000Y-91770000D03*
X87490000Y-91750000D03*
X84940000Y-94920000D03*
X97750000Y-91740000D03*
X90130000Y-91750000D03*
X97750000Y-94870000D03*
X95200000Y-94910000D03*
X95210000Y-91745000D03*
X108020000Y-94880000D03*
X105470000Y-94920000D03*
X87490000Y-94880000D03*
X82400000Y-91760000D03*
X92670000Y-94890000D03*
X108020000Y-91750000D03*
X82410000Y-94900000D03*
X100400000Y-91760000D03*
X100400000Y-94880000D03*
X102940000Y-94900000D03*
X79870000Y-94880000D03*
X84950000Y-91755000D03*
X105480000Y-91755000D03*
X79870000Y-91760000D03*
X90130000Y-94870000D03*
X92660000Y-91750000D03*
X102930000Y-91760000D03*
X110670000Y-94870000D03*
X118290000Y-91740000D03*
X118290000Y-94870000D03*
X115740000Y-94910000D03*
X115750000Y-91745000D03*
X110670000Y-91750000D03*
X113210000Y-94890000D03*
X113200000Y-91750000D03*
X69620000Y-66150000D03*
X77240000Y-63020000D03*
X77240000Y-66150000D03*
X74690000Y-66190000D03*
X74700000Y-63025000D03*
X69620000Y-63030000D03*
X72160000Y-66170000D03*
X72150000Y-63030000D03*
X79850000Y-66140000D03*
X87470000Y-63010000D03*
X87470000Y-66140000D03*
X84920000Y-66180000D03*
X84930000Y-63015000D03*
X79850000Y-63020000D03*
X82390000Y-66160000D03*
X82380000Y-63020000D03*
X90110000Y-66130000D03*
X97730000Y-63000000D03*
X97730000Y-66130000D03*
X95180000Y-66170000D03*
X95190000Y-63005000D03*
X90110000Y-63010000D03*
X92650000Y-66150000D03*
X92640000Y-63010000D03*
X100380000Y-66140000D03*
X108000000Y-63010000D03*
X108000000Y-66140000D03*
X105450000Y-66180000D03*
X105460000Y-63015000D03*
X100380000Y-63020000D03*
X102920000Y-66160000D03*
X102910000Y-63020000D03*
X113180000Y-63010000D03*
X110650000Y-63010000D03*
X113190000Y-66150000D03*
X115730000Y-63005000D03*
X115720000Y-66170000D03*
X118270000Y-66130000D03*
X110650000Y-66130000D03*
X118270000Y-63000000D03*
%TD*%
M02*
