%TF.GenerationSoftware,KiCad,Pcbnew,8.0.2*%
%TF.CreationDate,2024-09-05T16:45:02+09:00*%
%TF.ProjectId,ESP32_PCB,45535033-325f-4504-9342-2e6b69636164,rev?*%
%TF.SameCoordinates,Original*%
%TF.FileFunction,Legend,Top*%
%TF.FilePolarity,Positive*%
%FSLAX46Y46*%
G04 Gerber Fmt 4.6, Leading zero omitted, Abs format (unit mm)*
G04 Created by KiCad (PCBNEW 8.0.2) date 2024-09-05 16:45:02*
%MOMM*%
%LPD*%
G01*
G04 APERTURE LIST*
%ADD10C,0.100000*%
%ADD11C,0.125000*%
%ADD12C,1.000000*%
G04 APERTURE END LIST*
D10*
X65000000Y-65000000D02*
X119400000Y-65000000D01*
X119400000Y-92900000D01*
X65000000Y-92900000D01*
X65000000Y-65000000D01*
D11*
X90176811Y-61347690D02*
X90462525Y-61347690D01*
X90319668Y-61347690D02*
X90319668Y-61847690D01*
X90319668Y-61847690D02*
X90367287Y-61776261D01*
X90367287Y-61776261D02*
X90414906Y-61728642D01*
X90414906Y-61728642D02*
X90462525Y-61704833D01*
X89891097Y-61633404D02*
X89938716Y-61657214D01*
X89938716Y-61657214D02*
X89962526Y-61681023D01*
X89962526Y-61681023D02*
X89986335Y-61728642D01*
X89986335Y-61728642D02*
X89986335Y-61752452D01*
X89986335Y-61752452D02*
X89962526Y-61800071D01*
X89962526Y-61800071D02*
X89938716Y-61823880D01*
X89938716Y-61823880D02*
X89891097Y-61847690D01*
X89891097Y-61847690D02*
X89795859Y-61847690D01*
X89795859Y-61847690D02*
X89748240Y-61823880D01*
X89748240Y-61823880D02*
X89724431Y-61800071D01*
X89724431Y-61800071D02*
X89700621Y-61752452D01*
X89700621Y-61752452D02*
X89700621Y-61728642D01*
X89700621Y-61728642D02*
X89724431Y-61681023D01*
X89724431Y-61681023D02*
X89748240Y-61657214D01*
X89748240Y-61657214D02*
X89795859Y-61633404D01*
X89795859Y-61633404D02*
X89891097Y-61633404D01*
X89891097Y-61633404D02*
X89938716Y-61609595D01*
X89938716Y-61609595D02*
X89962526Y-61585785D01*
X89962526Y-61585785D02*
X89986335Y-61538166D01*
X89986335Y-61538166D02*
X89986335Y-61442928D01*
X89986335Y-61442928D02*
X89962526Y-61395309D01*
X89962526Y-61395309D02*
X89938716Y-61371500D01*
X89938716Y-61371500D02*
X89891097Y-61347690D01*
X89891097Y-61347690D02*
X89795859Y-61347690D01*
X89795859Y-61347690D02*
X89748240Y-61371500D01*
X89748240Y-61371500D02*
X89724431Y-61395309D01*
X89724431Y-61395309D02*
X89700621Y-61442928D01*
X89700621Y-61442928D02*
X89700621Y-61538166D01*
X89700621Y-61538166D02*
X89724431Y-61585785D01*
X89724431Y-61585785D02*
X89748240Y-61609595D01*
X89748240Y-61609595D02*
X89795859Y-61633404D01*
X82692525Y-61610071D02*
X82668716Y-61633880D01*
X82668716Y-61633880D02*
X82621097Y-61657690D01*
X82621097Y-61657690D02*
X82502049Y-61657690D01*
X82502049Y-61657690D02*
X82454430Y-61633880D01*
X82454430Y-61633880D02*
X82430621Y-61610071D01*
X82430621Y-61610071D02*
X82406811Y-61562452D01*
X82406811Y-61562452D02*
X82406811Y-61514833D01*
X82406811Y-61514833D02*
X82430621Y-61443404D01*
X82430621Y-61443404D02*
X82716335Y-61157690D01*
X82716335Y-61157690D02*
X82406811Y-61157690D01*
X81930621Y-61157690D02*
X82216335Y-61157690D01*
X82073478Y-61157690D02*
X82073478Y-61657690D01*
X82073478Y-61657690D02*
X82121097Y-61586261D01*
X82121097Y-61586261D02*
X82168716Y-61538642D01*
X82168716Y-61538642D02*
X82216335Y-61514833D01*
X95296811Y-61347690D02*
X95582525Y-61347690D01*
X95439668Y-61347690D02*
X95439668Y-61847690D01*
X95439668Y-61847690D02*
X95487287Y-61776261D01*
X95487287Y-61776261D02*
X95534906Y-61728642D01*
X95534906Y-61728642D02*
X95582525Y-61704833D01*
X95130145Y-61847690D02*
X94796812Y-61847690D01*
X94796812Y-61847690D02*
X95011097Y-61347690D01*
X107313664Y-95912309D02*
X107623188Y-95912309D01*
X107623188Y-95912309D02*
X107456521Y-96102785D01*
X107456521Y-96102785D02*
X107527950Y-96102785D01*
X107527950Y-96102785D02*
X107575569Y-96126595D01*
X107575569Y-96126595D02*
X107599378Y-96150404D01*
X107599378Y-96150404D02*
X107623188Y-96198023D01*
X107623188Y-96198023D02*
X107623188Y-96317071D01*
X107623188Y-96317071D02*
X107599378Y-96364690D01*
X107599378Y-96364690D02*
X107575569Y-96388500D01*
X107575569Y-96388500D02*
X107527950Y-96412309D01*
X107527950Y-96412309D02*
X107385093Y-96412309D01*
X107385093Y-96412309D02*
X107337474Y-96388500D01*
X107337474Y-96388500D02*
X107313664Y-96364690D01*
X107837473Y-96364690D02*
X107861283Y-96388500D01*
X107861283Y-96388500D02*
X107837473Y-96412309D01*
X107837473Y-96412309D02*
X107813664Y-96388500D01*
X107813664Y-96388500D02*
X107837473Y-96364690D01*
X107837473Y-96364690D02*
X107837473Y-96412309D01*
X108027949Y-95912309D02*
X108337473Y-95912309D01*
X108337473Y-95912309D02*
X108170806Y-96102785D01*
X108170806Y-96102785D02*
X108242235Y-96102785D01*
X108242235Y-96102785D02*
X108289854Y-96126595D01*
X108289854Y-96126595D02*
X108313663Y-96150404D01*
X108313663Y-96150404D02*
X108337473Y-96198023D01*
X108337473Y-96198023D02*
X108337473Y-96317071D01*
X108337473Y-96317071D02*
X108313663Y-96364690D01*
X108313663Y-96364690D02*
X108289854Y-96388500D01*
X108289854Y-96388500D02*
X108242235Y-96412309D01*
X108242235Y-96412309D02*
X108099378Y-96412309D01*
X108099378Y-96412309D02*
X108051759Y-96388500D01*
X108051759Y-96388500D02*
X108027949Y-96364690D01*
X108480330Y-95912309D02*
X108646996Y-96412309D01*
X108646996Y-96412309D02*
X108813663Y-95912309D01*
X89777474Y-95989928D02*
X89801283Y-95966119D01*
X89801283Y-95966119D02*
X89848902Y-95942309D01*
X89848902Y-95942309D02*
X89967950Y-95942309D01*
X89967950Y-95942309D02*
X90015569Y-95966119D01*
X90015569Y-95966119D02*
X90039378Y-95989928D01*
X90039378Y-95989928D02*
X90063188Y-96037547D01*
X90063188Y-96037547D02*
X90063188Y-96085166D01*
X90063188Y-96085166D02*
X90039378Y-96156595D01*
X90039378Y-96156595D02*
X89753664Y-96442309D01*
X89753664Y-96442309D02*
X90063188Y-96442309D01*
X90515568Y-95942309D02*
X90277473Y-95942309D01*
X90277473Y-95942309D02*
X90253664Y-96180404D01*
X90253664Y-96180404D02*
X90277473Y-96156595D01*
X90277473Y-96156595D02*
X90325092Y-96132785D01*
X90325092Y-96132785D02*
X90444140Y-96132785D01*
X90444140Y-96132785D02*
X90491759Y-96156595D01*
X90491759Y-96156595D02*
X90515568Y-96180404D01*
X90515568Y-96180404D02*
X90539378Y-96228023D01*
X90539378Y-96228023D02*
X90539378Y-96347071D01*
X90539378Y-96347071D02*
X90515568Y-96394690D01*
X90515568Y-96394690D02*
X90491759Y-96418500D01*
X90491759Y-96418500D02*
X90444140Y-96442309D01*
X90444140Y-96442309D02*
X90325092Y-96442309D01*
X90325092Y-96442309D02*
X90277473Y-96418500D01*
X90277473Y-96418500D02*
X90253664Y-96394690D01*
X105522525Y-61840071D02*
X105498716Y-61863880D01*
X105498716Y-61863880D02*
X105451097Y-61887690D01*
X105451097Y-61887690D02*
X105332049Y-61887690D01*
X105332049Y-61887690D02*
X105284430Y-61863880D01*
X105284430Y-61863880D02*
X105260621Y-61840071D01*
X105260621Y-61840071D02*
X105236811Y-61792452D01*
X105236811Y-61792452D02*
X105236811Y-61744833D01*
X105236811Y-61744833D02*
X105260621Y-61673404D01*
X105260621Y-61673404D02*
X105546335Y-61387690D01*
X105546335Y-61387690D02*
X105236811Y-61387690D01*
X105393188Y-96422309D02*
X105107474Y-96422309D01*
X105250331Y-96422309D02*
X105250331Y-95922309D01*
X105250331Y-95922309D02*
X105202712Y-95993738D01*
X105202712Y-95993738D02*
X105155093Y-96041357D01*
X105155093Y-96041357D02*
X105107474Y-96065166D01*
X105559854Y-95922309D02*
X105869378Y-95922309D01*
X105869378Y-95922309D02*
X105702711Y-96112785D01*
X105702711Y-96112785D02*
X105774140Y-96112785D01*
X105774140Y-96112785D02*
X105821759Y-96136595D01*
X105821759Y-96136595D02*
X105845568Y-96160404D01*
X105845568Y-96160404D02*
X105869378Y-96208023D01*
X105869378Y-96208023D02*
X105869378Y-96327071D01*
X105869378Y-96327071D02*
X105845568Y-96374690D01*
X105845568Y-96374690D02*
X105821759Y-96398500D01*
X105821759Y-96398500D02*
X105774140Y-96422309D01*
X105774140Y-96422309D02*
X105631283Y-96422309D01*
X105631283Y-96422309D02*
X105583664Y-96398500D01*
X105583664Y-96398500D02*
X105559854Y-96374690D01*
X97723188Y-96422309D02*
X97437474Y-96422309D01*
X97580331Y-96422309D02*
X97580331Y-95922309D01*
X97580331Y-95922309D02*
X97532712Y-95993738D01*
X97532712Y-95993738D02*
X97485093Y-96041357D01*
X97485093Y-96041357D02*
X97437474Y-96065166D01*
X98151759Y-96088976D02*
X98151759Y-96422309D01*
X98032711Y-95898500D02*
X97913664Y-96255642D01*
X97913664Y-96255642D02*
X98223187Y-96255642D01*
X102603188Y-95956119D02*
X102555569Y-95932309D01*
X102555569Y-95932309D02*
X102484140Y-95932309D01*
X102484140Y-95932309D02*
X102412712Y-95956119D01*
X102412712Y-95956119D02*
X102365093Y-96003738D01*
X102365093Y-96003738D02*
X102341283Y-96051357D01*
X102341283Y-96051357D02*
X102317474Y-96146595D01*
X102317474Y-96146595D02*
X102317474Y-96218023D01*
X102317474Y-96218023D02*
X102341283Y-96313261D01*
X102341283Y-96313261D02*
X102365093Y-96360880D01*
X102365093Y-96360880D02*
X102412712Y-96408500D01*
X102412712Y-96408500D02*
X102484140Y-96432309D01*
X102484140Y-96432309D02*
X102531759Y-96432309D01*
X102531759Y-96432309D02*
X102603188Y-96408500D01*
X102603188Y-96408500D02*
X102626997Y-96384690D01*
X102626997Y-96384690D02*
X102626997Y-96218023D01*
X102626997Y-96218023D02*
X102531759Y-96218023D01*
X102841283Y-96432309D02*
X102841283Y-95932309D01*
X102841283Y-95932309D02*
X103126997Y-96432309D01*
X103126997Y-96432309D02*
X103126997Y-95932309D01*
X103365093Y-96432309D02*
X103365093Y-95932309D01*
X103365093Y-95932309D02*
X103484141Y-95932309D01*
X103484141Y-95932309D02*
X103555569Y-95956119D01*
X103555569Y-95956119D02*
X103603188Y-96003738D01*
X103603188Y-96003738D02*
X103626998Y-96051357D01*
X103626998Y-96051357D02*
X103650807Y-96146595D01*
X103650807Y-96146595D02*
X103650807Y-96218023D01*
X103650807Y-96218023D02*
X103626998Y-96313261D01*
X103626998Y-96313261D02*
X103603188Y-96360880D01*
X103603188Y-96360880D02*
X103555569Y-96408500D01*
X103555569Y-96408500D02*
X103484141Y-96432309D01*
X103484141Y-96432309D02*
X103365093Y-96432309D01*
X68923664Y-95912309D02*
X69233188Y-95912309D01*
X69233188Y-95912309D02*
X69066521Y-96102785D01*
X69066521Y-96102785D02*
X69137950Y-96102785D01*
X69137950Y-96102785D02*
X69185569Y-96126595D01*
X69185569Y-96126595D02*
X69209378Y-96150404D01*
X69209378Y-96150404D02*
X69233188Y-96198023D01*
X69233188Y-96198023D02*
X69233188Y-96317071D01*
X69233188Y-96317071D02*
X69209378Y-96364690D01*
X69209378Y-96364690D02*
X69185569Y-96388500D01*
X69185569Y-96388500D02*
X69137950Y-96412309D01*
X69137950Y-96412309D02*
X68995093Y-96412309D01*
X68995093Y-96412309D02*
X68947474Y-96388500D01*
X68947474Y-96388500D02*
X68923664Y-96364690D01*
X69447473Y-96364690D02*
X69471283Y-96388500D01*
X69471283Y-96388500D02*
X69447473Y-96412309D01*
X69447473Y-96412309D02*
X69423664Y-96388500D01*
X69423664Y-96388500D02*
X69447473Y-96364690D01*
X69447473Y-96364690D02*
X69447473Y-96412309D01*
X69637949Y-95912309D02*
X69947473Y-95912309D01*
X69947473Y-95912309D02*
X69780806Y-96102785D01*
X69780806Y-96102785D02*
X69852235Y-96102785D01*
X69852235Y-96102785D02*
X69899854Y-96126595D01*
X69899854Y-96126595D02*
X69923663Y-96150404D01*
X69923663Y-96150404D02*
X69947473Y-96198023D01*
X69947473Y-96198023D02*
X69947473Y-96317071D01*
X69947473Y-96317071D02*
X69923663Y-96364690D01*
X69923663Y-96364690D02*
X69899854Y-96388500D01*
X69899854Y-96388500D02*
X69852235Y-96412309D01*
X69852235Y-96412309D02*
X69709378Y-96412309D01*
X69709378Y-96412309D02*
X69661759Y-96388500D01*
X69661759Y-96388500D02*
X69637949Y-96364690D01*
X70090330Y-95912309D02*
X70256996Y-96412309D01*
X70256996Y-96412309D02*
X70423663Y-95912309D01*
X118636811Y-61913880D02*
X118684430Y-61937690D01*
X118684430Y-61937690D02*
X118755859Y-61937690D01*
X118755859Y-61937690D02*
X118827287Y-61913880D01*
X118827287Y-61913880D02*
X118874906Y-61866261D01*
X118874906Y-61866261D02*
X118898716Y-61818642D01*
X118898716Y-61818642D02*
X118922525Y-61723404D01*
X118922525Y-61723404D02*
X118922525Y-61651976D01*
X118922525Y-61651976D02*
X118898716Y-61556738D01*
X118898716Y-61556738D02*
X118874906Y-61509119D01*
X118874906Y-61509119D02*
X118827287Y-61461500D01*
X118827287Y-61461500D02*
X118755859Y-61437690D01*
X118755859Y-61437690D02*
X118708240Y-61437690D01*
X118708240Y-61437690D02*
X118636811Y-61461500D01*
X118636811Y-61461500D02*
X118613002Y-61485309D01*
X118613002Y-61485309D02*
X118613002Y-61651976D01*
X118613002Y-61651976D02*
X118708240Y-61651976D01*
X118398716Y-61437690D02*
X118398716Y-61937690D01*
X118398716Y-61937690D02*
X118113002Y-61437690D01*
X118113002Y-61437690D02*
X118113002Y-61937690D01*
X117874906Y-61437690D02*
X117874906Y-61937690D01*
X117874906Y-61937690D02*
X117755858Y-61937690D01*
X117755858Y-61937690D02*
X117684430Y-61913880D01*
X117684430Y-61913880D02*
X117636811Y-61866261D01*
X117636811Y-61866261D02*
X117613001Y-61818642D01*
X117613001Y-61818642D02*
X117589192Y-61723404D01*
X117589192Y-61723404D02*
X117589192Y-61651976D01*
X117589192Y-61651976D02*
X117613001Y-61556738D01*
X117613001Y-61556738D02*
X117636811Y-61509119D01*
X117636811Y-61509119D02*
X117684430Y-61461500D01*
X117684430Y-61461500D02*
X117755858Y-61437690D01*
X117755858Y-61437690D02*
X117874906Y-61437690D01*
X110976811Y-61833880D02*
X111024430Y-61857690D01*
X111024430Y-61857690D02*
X111095859Y-61857690D01*
X111095859Y-61857690D02*
X111167287Y-61833880D01*
X111167287Y-61833880D02*
X111214906Y-61786261D01*
X111214906Y-61786261D02*
X111238716Y-61738642D01*
X111238716Y-61738642D02*
X111262525Y-61643404D01*
X111262525Y-61643404D02*
X111262525Y-61571976D01*
X111262525Y-61571976D02*
X111238716Y-61476738D01*
X111238716Y-61476738D02*
X111214906Y-61429119D01*
X111214906Y-61429119D02*
X111167287Y-61381500D01*
X111167287Y-61381500D02*
X111095859Y-61357690D01*
X111095859Y-61357690D02*
X111048240Y-61357690D01*
X111048240Y-61357690D02*
X110976811Y-61381500D01*
X110976811Y-61381500D02*
X110953002Y-61405309D01*
X110953002Y-61405309D02*
X110953002Y-61571976D01*
X110953002Y-61571976D02*
X111048240Y-61571976D01*
X110738716Y-61357690D02*
X110738716Y-61857690D01*
X110738716Y-61857690D02*
X110453002Y-61357690D01*
X110453002Y-61357690D02*
X110453002Y-61857690D01*
X110214906Y-61357690D02*
X110214906Y-61857690D01*
X110214906Y-61857690D02*
X110095858Y-61857690D01*
X110095858Y-61857690D02*
X110024430Y-61833880D01*
X110024430Y-61833880D02*
X109976811Y-61786261D01*
X109976811Y-61786261D02*
X109953001Y-61738642D01*
X109953001Y-61738642D02*
X109929192Y-61643404D01*
X109929192Y-61643404D02*
X109929192Y-61571976D01*
X109929192Y-61571976D02*
X109953001Y-61476738D01*
X109953001Y-61476738D02*
X109976811Y-61429119D01*
X109976811Y-61429119D02*
X110024430Y-61381500D01*
X110024430Y-61381500D02*
X110095858Y-61357690D01*
X110095858Y-61357690D02*
X110214906Y-61357690D01*
X100254430Y-61691023D02*
X100254430Y-61357690D01*
X100373478Y-61881500D02*
X100492525Y-61524357D01*
X100492525Y-61524357D02*
X100183002Y-61524357D01*
X115709378Y-95922309D02*
X115471283Y-95922309D01*
X115471283Y-95922309D02*
X115447474Y-96160404D01*
X115447474Y-96160404D02*
X115471283Y-96136595D01*
X115471283Y-96136595D02*
X115518902Y-96112785D01*
X115518902Y-96112785D02*
X115637950Y-96112785D01*
X115637950Y-96112785D02*
X115685569Y-96136595D01*
X115685569Y-96136595D02*
X115709378Y-96160404D01*
X115709378Y-96160404D02*
X115733188Y-96208023D01*
X115733188Y-96208023D02*
X115733188Y-96327071D01*
X115733188Y-96327071D02*
X115709378Y-96374690D01*
X115709378Y-96374690D02*
X115685569Y-96398500D01*
X115685569Y-96398500D02*
X115637950Y-96422309D01*
X115637950Y-96422309D02*
X115518902Y-96422309D01*
X115518902Y-96422309D02*
X115471283Y-96398500D01*
X115471283Y-96398500D02*
X115447474Y-96374690D01*
X115876045Y-95922309D02*
X116042711Y-96422309D01*
X116042711Y-96422309D02*
X116209378Y-95922309D01*
X102913478Y-61857690D02*
X102865859Y-61857690D01*
X102865859Y-61857690D02*
X102818240Y-61833880D01*
X102818240Y-61833880D02*
X102794430Y-61810071D01*
X102794430Y-61810071D02*
X102770621Y-61762452D01*
X102770621Y-61762452D02*
X102746811Y-61667214D01*
X102746811Y-61667214D02*
X102746811Y-61548166D01*
X102746811Y-61548166D02*
X102770621Y-61452928D01*
X102770621Y-61452928D02*
X102794430Y-61405309D01*
X102794430Y-61405309D02*
X102818240Y-61381500D01*
X102818240Y-61381500D02*
X102865859Y-61357690D01*
X102865859Y-61357690D02*
X102913478Y-61357690D01*
X102913478Y-61357690D02*
X102961097Y-61381500D01*
X102961097Y-61381500D02*
X102984906Y-61405309D01*
X102984906Y-61405309D02*
X103008716Y-61452928D01*
X103008716Y-61452928D02*
X103032525Y-61548166D01*
X103032525Y-61548166D02*
X103032525Y-61667214D01*
X103032525Y-61667214D02*
X103008716Y-61762452D01*
X103008716Y-61762452D02*
X102984906Y-61810071D01*
X102984906Y-61810071D02*
X102961097Y-61833880D01*
X102961097Y-61833880D02*
X102913478Y-61857690D01*
X100293188Y-96422309D02*
X100007474Y-96422309D01*
X100150331Y-96422309D02*
X100150331Y-95922309D01*
X100150331Y-95922309D02*
X100102712Y-95993738D01*
X100102712Y-95993738D02*
X100055093Y-96041357D01*
X100055093Y-96041357D02*
X100007474Y-96065166D01*
X100483664Y-95969928D02*
X100507473Y-95946119D01*
X100507473Y-95946119D02*
X100555092Y-95922309D01*
X100555092Y-95922309D02*
X100674140Y-95922309D01*
X100674140Y-95922309D02*
X100721759Y-95946119D01*
X100721759Y-95946119D02*
X100745568Y-95969928D01*
X100745568Y-95969928D02*
X100769378Y-96017547D01*
X100769378Y-96017547D02*
X100769378Y-96065166D01*
X100769378Y-96065166D02*
X100745568Y-96136595D01*
X100745568Y-96136595D02*
X100459854Y-96422309D01*
X100459854Y-96422309D02*
X100769378Y-96422309D01*
X71851283Y-96170404D02*
X72017950Y-96170404D01*
X72089378Y-96432309D02*
X71851283Y-96432309D01*
X71851283Y-96432309D02*
X71851283Y-95932309D01*
X71851283Y-95932309D02*
X72089378Y-95932309D01*
X72303664Y-96432309D02*
X72303664Y-95932309D01*
X72303664Y-95932309D02*
X72589378Y-96432309D01*
X72589378Y-96432309D02*
X72589378Y-95932309D01*
X87153664Y-95912309D02*
X87463188Y-95912309D01*
X87463188Y-95912309D02*
X87296521Y-96102785D01*
X87296521Y-96102785D02*
X87367950Y-96102785D01*
X87367950Y-96102785D02*
X87415569Y-96126595D01*
X87415569Y-96126595D02*
X87439378Y-96150404D01*
X87439378Y-96150404D02*
X87463188Y-96198023D01*
X87463188Y-96198023D02*
X87463188Y-96317071D01*
X87463188Y-96317071D02*
X87439378Y-96364690D01*
X87439378Y-96364690D02*
X87415569Y-96388500D01*
X87415569Y-96388500D02*
X87367950Y-96412309D01*
X87367950Y-96412309D02*
X87225093Y-96412309D01*
X87225093Y-96412309D02*
X87177474Y-96388500D01*
X87177474Y-96388500D02*
X87153664Y-96364690D01*
X87629854Y-95912309D02*
X87939378Y-95912309D01*
X87939378Y-95912309D02*
X87772711Y-96102785D01*
X87772711Y-96102785D02*
X87844140Y-96102785D01*
X87844140Y-96102785D02*
X87891759Y-96126595D01*
X87891759Y-96126595D02*
X87915568Y-96150404D01*
X87915568Y-96150404D02*
X87939378Y-96198023D01*
X87939378Y-96198023D02*
X87939378Y-96317071D01*
X87939378Y-96317071D02*
X87915568Y-96364690D01*
X87915568Y-96364690D02*
X87891759Y-96388500D01*
X87891759Y-96388500D02*
X87844140Y-96412309D01*
X87844140Y-96412309D02*
X87701283Y-96412309D01*
X87701283Y-96412309D02*
X87653664Y-96388500D01*
X87653664Y-96388500D02*
X87629854Y-96364690D01*
X87526811Y-61267690D02*
X87812525Y-61267690D01*
X87669668Y-61267690D02*
X87669668Y-61767690D01*
X87669668Y-61767690D02*
X87717287Y-61696261D01*
X87717287Y-61696261D02*
X87764906Y-61648642D01*
X87764906Y-61648642D02*
X87812525Y-61624833D01*
X87288716Y-61267690D02*
X87193478Y-61267690D01*
X87193478Y-61267690D02*
X87145859Y-61291500D01*
X87145859Y-61291500D02*
X87122050Y-61315309D01*
X87122050Y-61315309D02*
X87074431Y-61386738D01*
X87074431Y-61386738D02*
X87050621Y-61481976D01*
X87050621Y-61481976D02*
X87050621Y-61672452D01*
X87050621Y-61672452D02*
X87074431Y-61720071D01*
X87074431Y-61720071D02*
X87098240Y-61743880D01*
X87098240Y-61743880D02*
X87145859Y-61767690D01*
X87145859Y-61767690D02*
X87241097Y-61767690D01*
X87241097Y-61767690D02*
X87288716Y-61743880D01*
X87288716Y-61743880D02*
X87312526Y-61720071D01*
X87312526Y-61720071D02*
X87336335Y-61672452D01*
X87336335Y-61672452D02*
X87336335Y-61553404D01*
X87336335Y-61553404D02*
X87312526Y-61505785D01*
X87312526Y-61505785D02*
X87288716Y-61481976D01*
X87288716Y-61481976D02*
X87241097Y-61458166D01*
X87241097Y-61458166D02*
X87145859Y-61458166D01*
X87145859Y-61458166D02*
X87098240Y-61481976D01*
X87098240Y-61481976D02*
X87074431Y-61505785D01*
X87074431Y-61505785D02*
X87050621Y-61553404D01*
X109963664Y-95922309D02*
X110273188Y-95922309D01*
X110273188Y-95922309D02*
X110106521Y-96112785D01*
X110106521Y-96112785D02*
X110177950Y-96112785D01*
X110177950Y-96112785D02*
X110225569Y-96136595D01*
X110225569Y-96136595D02*
X110249378Y-96160404D01*
X110249378Y-96160404D02*
X110273188Y-96208023D01*
X110273188Y-96208023D02*
X110273188Y-96327071D01*
X110273188Y-96327071D02*
X110249378Y-96374690D01*
X110249378Y-96374690D02*
X110225569Y-96398500D01*
X110225569Y-96398500D02*
X110177950Y-96422309D01*
X110177950Y-96422309D02*
X110035093Y-96422309D01*
X110035093Y-96422309D02*
X109987474Y-96398500D01*
X109987474Y-96398500D02*
X109963664Y-96374690D01*
X110487473Y-96374690D02*
X110511283Y-96398500D01*
X110511283Y-96398500D02*
X110487473Y-96422309D01*
X110487473Y-96422309D02*
X110463664Y-96398500D01*
X110463664Y-96398500D02*
X110487473Y-96374690D01*
X110487473Y-96374690D02*
X110487473Y-96422309D01*
X110677949Y-95922309D02*
X110987473Y-95922309D01*
X110987473Y-95922309D02*
X110820806Y-96112785D01*
X110820806Y-96112785D02*
X110892235Y-96112785D01*
X110892235Y-96112785D02*
X110939854Y-96136595D01*
X110939854Y-96136595D02*
X110963663Y-96160404D01*
X110963663Y-96160404D02*
X110987473Y-96208023D01*
X110987473Y-96208023D02*
X110987473Y-96327071D01*
X110987473Y-96327071D02*
X110963663Y-96374690D01*
X110963663Y-96374690D02*
X110939854Y-96398500D01*
X110939854Y-96398500D02*
X110892235Y-96422309D01*
X110892235Y-96422309D02*
X110749378Y-96422309D01*
X110749378Y-96422309D02*
X110701759Y-96398500D01*
X110701759Y-96398500D02*
X110677949Y-96374690D01*
X111130330Y-95922309D02*
X111296996Y-96422309D01*
X111296996Y-96422309D02*
X111463663Y-95922309D01*
X92317474Y-95959928D02*
X92341283Y-95936119D01*
X92341283Y-95936119D02*
X92388902Y-95912309D01*
X92388902Y-95912309D02*
X92507950Y-95912309D01*
X92507950Y-95912309D02*
X92555569Y-95936119D01*
X92555569Y-95936119D02*
X92579378Y-95959928D01*
X92579378Y-95959928D02*
X92603188Y-96007547D01*
X92603188Y-96007547D02*
X92603188Y-96055166D01*
X92603188Y-96055166D02*
X92579378Y-96126595D01*
X92579378Y-96126595D02*
X92293664Y-96412309D01*
X92293664Y-96412309D02*
X92603188Y-96412309D01*
X93031759Y-95912309D02*
X92936521Y-95912309D01*
X92936521Y-95912309D02*
X92888902Y-95936119D01*
X92888902Y-95936119D02*
X92865092Y-95959928D01*
X92865092Y-95959928D02*
X92817473Y-96031357D01*
X92817473Y-96031357D02*
X92793664Y-96126595D01*
X92793664Y-96126595D02*
X92793664Y-96317071D01*
X92793664Y-96317071D02*
X92817473Y-96364690D01*
X92817473Y-96364690D02*
X92841283Y-96388500D01*
X92841283Y-96388500D02*
X92888902Y-96412309D01*
X92888902Y-96412309D02*
X92984140Y-96412309D01*
X92984140Y-96412309D02*
X93031759Y-96388500D01*
X93031759Y-96388500D02*
X93055568Y-96364690D01*
X93055568Y-96364690D02*
X93079378Y-96317071D01*
X93079378Y-96317071D02*
X93079378Y-96198023D01*
X93079378Y-96198023D02*
X93055568Y-96150404D01*
X93055568Y-96150404D02*
X93031759Y-96126595D01*
X93031759Y-96126595D02*
X92984140Y-96102785D01*
X92984140Y-96102785D02*
X92888902Y-96102785D01*
X92888902Y-96102785D02*
X92841283Y-96126595D01*
X92841283Y-96126595D02*
X92817473Y-96150404D01*
X92817473Y-96150404D02*
X92793664Y-96198023D01*
X92490621Y-61847690D02*
X92728716Y-61847690D01*
X92728716Y-61847690D02*
X92752525Y-61609595D01*
X92752525Y-61609595D02*
X92728716Y-61633404D01*
X92728716Y-61633404D02*
X92681097Y-61657214D01*
X92681097Y-61657214D02*
X92562049Y-61657214D01*
X92562049Y-61657214D02*
X92514430Y-61633404D01*
X92514430Y-61633404D02*
X92490621Y-61609595D01*
X92490621Y-61609595D02*
X92466811Y-61561976D01*
X92466811Y-61561976D02*
X92466811Y-61442928D01*
X92466811Y-61442928D02*
X92490621Y-61395309D01*
X92490621Y-61395309D02*
X92514430Y-61371500D01*
X92514430Y-61371500D02*
X92562049Y-61347690D01*
X92562049Y-61347690D02*
X92681097Y-61347690D01*
X92681097Y-61347690D02*
X92728716Y-61371500D01*
X92728716Y-61371500D02*
X92752525Y-61395309D01*
X69966811Y-61633880D02*
X70014430Y-61657690D01*
X70014430Y-61657690D02*
X70085859Y-61657690D01*
X70085859Y-61657690D02*
X70157287Y-61633880D01*
X70157287Y-61633880D02*
X70204906Y-61586261D01*
X70204906Y-61586261D02*
X70228716Y-61538642D01*
X70228716Y-61538642D02*
X70252525Y-61443404D01*
X70252525Y-61443404D02*
X70252525Y-61371976D01*
X70252525Y-61371976D02*
X70228716Y-61276738D01*
X70228716Y-61276738D02*
X70204906Y-61229119D01*
X70204906Y-61229119D02*
X70157287Y-61181500D01*
X70157287Y-61181500D02*
X70085859Y-61157690D01*
X70085859Y-61157690D02*
X70038240Y-61157690D01*
X70038240Y-61157690D02*
X69966811Y-61181500D01*
X69966811Y-61181500D02*
X69943002Y-61205309D01*
X69943002Y-61205309D02*
X69943002Y-61371976D01*
X69943002Y-61371976D02*
X70038240Y-61371976D01*
X69728716Y-61157690D02*
X69728716Y-61657690D01*
X69728716Y-61657690D02*
X69443002Y-61157690D01*
X69443002Y-61157690D02*
X69443002Y-61657690D01*
X69204906Y-61157690D02*
X69204906Y-61657690D01*
X69204906Y-61657690D02*
X69085858Y-61657690D01*
X69085858Y-61657690D02*
X69014430Y-61633880D01*
X69014430Y-61633880D02*
X68966811Y-61586261D01*
X68966811Y-61586261D02*
X68943001Y-61538642D01*
X68943001Y-61538642D02*
X68919192Y-61443404D01*
X68919192Y-61443404D02*
X68919192Y-61371976D01*
X68919192Y-61371976D02*
X68943001Y-61276738D01*
X68943001Y-61276738D02*
X68966811Y-61229119D01*
X68966811Y-61229119D02*
X69014430Y-61181500D01*
X69014430Y-61181500D02*
X69085858Y-61157690D01*
X69085858Y-61157690D02*
X69204906Y-61157690D01*
X75012525Y-61610071D02*
X74988716Y-61633880D01*
X74988716Y-61633880D02*
X74941097Y-61657690D01*
X74941097Y-61657690D02*
X74822049Y-61657690D01*
X74822049Y-61657690D02*
X74774430Y-61633880D01*
X74774430Y-61633880D02*
X74750621Y-61610071D01*
X74750621Y-61610071D02*
X74726811Y-61562452D01*
X74726811Y-61562452D02*
X74726811Y-61514833D01*
X74726811Y-61514833D02*
X74750621Y-61443404D01*
X74750621Y-61443404D02*
X75036335Y-61157690D01*
X75036335Y-61157690D02*
X74726811Y-61157690D01*
X74536335Y-61610071D02*
X74512526Y-61633880D01*
X74512526Y-61633880D02*
X74464907Y-61657690D01*
X74464907Y-61657690D02*
X74345859Y-61657690D01*
X74345859Y-61657690D02*
X74298240Y-61633880D01*
X74298240Y-61633880D02*
X74274431Y-61610071D01*
X74274431Y-61610071D02*
X74250621Y-61562452D01*
X74250621Y-61562452D02*
X74250621Y-61514833D01*
X74250621Y-61514833D02*
X74274431Y-61443404D01*
X74274431Y-61443404D02*
X74560145Y-61157690D01*
X74560145Y-61157690D02*
X74250621Y-61157690D01*
X118199378Y-95932309D02*
X117961283Y-95932309D01*
X117961283Y-95932309D02*
X117937474Y-96170404D01*
X117937474Y-96170404D02*
X117961283Y-96146595D01*
X117961283Y-96146595D02*
X118008902Y-96122785D01*
X118008902Y-96122785D02*
X118127950Y-96122785D01*
X118127950Y-96122785D02*
X118175569Y-96146595D01*
X118175569Y-96146595D02*
X118199378Y-96170404D01*
X118199378Y-96170404D02*
X118223188Y-96218023D01*
X118223188Y-96218023D02*
X118223188Y-96337071D01*
X118223188Y-96337071D02*
X118199378Y-96384690D01*
X118199378Y-96384690D02*
X118175569Y-96408500D01*
X118175569Y-96408500D02*
X118127950Y-96432309D01*
X118127950Y-96432309D02*
X118008902Y-96432309D01*
X118008902Y-96432309D02*
X117961283Y-96408500D01*
X117961283Y-96408500D02*
X117937474Y-96384690D01*
X118366045Y-95932309D02*
X118532711Y-96432309D01*
X118532711Y-96432309D02*
X118699378Y-95932309D01*
X116096811Y-61893880D02*
X116144430Y-61917690D01*
X116144430Y-61917690D02*
X116215859Y-61917690D01*
X116215859Y-61917690D02*
X116287287Y-61893880D01*
X116287287Y-61893880D02*
X116334906Y-61846261D01*
X116334906Y-61846261D02*
X116358716Y-61798642D01*
X116358716Y-61798642D02*
X116382525Y-61703404D01*
X116382525Y-61703404D02*
X116382525Y-61631976D01*
X116382525Y-61631976D02*
X116358716Y-61536738D01*
X116358716Y-61536738D02*
X116334906Y-61489119D01*
X116334906Y-61489119D02*
X116287287Y-61441500D01*
X116287287Y-61441500D02*
X116215859Y-61417690D01*
X116215859Y-61417690D02*
X116168240Y-61417690D01*
X116168240Y-61417690D02*
X116096811Y-61441500D01*
X116096811Y-61441500D02*
X116073002Y-61465309D01*
X116073002Y-61465309D02*
X116073002Y-61631976D01*
X116073002Y-61631976D02*
X116168240Y-61631976D01*
X115858716Y-61417690D02*
X115858716Y-61917690D01*
X115858716Y-61917690D02*
X115573002Y-61417690D01*
X115573002Y-61417690D02*
X115573002Y-61917690D01*
X115334906Y-61417690D02*
X115334906Y-61917690D01*
X115334906Y-61917690D02*
X115215858Y-61917690D01*
X115215858Y-61917690D02*
X115144430Y-61893880D01*
X115144430Y-61893880D02*
X115096811Y-61846261D01*
X115096811Y-61846261D02*
X115073001Y-61798642D01*
X115073001Y-61798642D02*
X115049192Y-61703404D01*
X115049192Y-61703404D02*
X115049192Y-61631976D01*
X115049192Y-61631976D02*
X115073001Y-61536738D01*
X115073001Y-61536738D02*
X115096811Y-61489119D01*
X115096811Y-61489119D02*
X115144430Y-61441500D01*
X115144430Y-61441500D02*
X115215858Y-61417690D01*
X115215858Y-61417690D02*
X115334906Y-61417690D01*
X113546811Y-61823880D02*
X113594430Y-61847690D01*
X113594430Y-61847690D02*
X113665859Y-61847690D01*
X113665859Y-61847690D02*
X113737287Y-61823880D01*
X113737287Y-61823880D02*
X113784906Y-61776261D01*
X113784906Y-61776261D02*
X113808716Y-61728642D01*
X113808716Y-61728642D02*
X113832525Y-61633404D01*
X113832525Y-61633404D02*
X113832525Y-61561976D01*
X113832525Y-61561976D02*
X113808716Y-61466738D01*
X113808716Y-61466738D02*
X113784906Y-61419119D01*
X113784906Y-61419119D02*
X113737287Y-61371500D01*
X113737287Y-61371500D02*
X113665859Y-61347690D01*
X113665859Y-61347690D02*
X113618240Y-61347690D01*
X113618240Y-61347690D02*
X113546811Y-61371500D01*
X113546811Y-61371500D02*
X113523002Y-61395309D01*
X113523002Y-61395309D02*
X113523002Y-61561976D01*
X113523002Y-61561976D02*
X113618240Y-61561976D01*
X113308716Y-61347690D02*
X113308716Y-61847690D01*
X113308716Y-61847690D02*
X113023002Y-61347690D01*
X113023002Y-61347690D02*
X113023002Y-61847690D01*
X112784906Y-61347690D02*
X112784906Y-61847690D01*
X112784906Y-61847690D02*
X112665858Y-61847690D01*
X112665858Y-61847690D02*
X112594430Y-61823880D01*
X112594430Y-61823880D02*
X112546811Y-61776261D01*
X112546811Y-61776261D02*
X112523001Y-61728642D01*
X112523001Y-61728642D02*
X112499192Y-61633404D01*
X112499192Y-61633404D02*
X112499192Y-61561976D01*
X112499192Y-61561976D02*
X112523001Y-61466738D01*
X112523001Y-61466738D02*
X112546811Y-61419119D01*
X112546811Y-61419119D02*
X112594430Y-61371500D01*
X112594430Y-61371500D02*
X112665858Y-61347690D01*
X112665858Y-61347690D02*
X112784906Y-61347690D01*
X84613664Y-95922309D02*
X84923188Y-95922309D01*
X84923188Y-95922309D02*
X84756521Y-96112785D01*
X84756521Y-96112785D02*
X84827950Y-96112785D01*
X84827950Y-96112785D02*
X84875569Y-96136595D01*
X84875569Y-96136595D02*
X84899378Y-96160404D01*
X84899378Y-96160404D02*
X84923188Y-96208023D01*
X84923188Y-96208023D02*
X84923188Y-96327071D01*
X84923188Y-96327071D02*
X84899378Y-96374690D01*
X84899378Y-96374690D02*
X84875569Y-96398500D01*
X84875569Y-96398500D02*
X84827950Y-96422309D01*
X84827950Y-96422309D02*
X84685093Y-96422309D01*
X84685093Y-96422309D02*
X84637474Y-96398500D01*
X84637474Y-96398500D02*
X84613664Y-96374690D01*
X85113664Y-95969928D02*
X85137473Y-95946119D01*
X85137473Y-95946119D02*
X85185092Y-95922309D01*
X85185092Y-95922309D02*
X85304140Y-95922309D01*
X85304140Y-95922309D02*
X85351759Y-95946119D01*
X85351759Y-95946119D02*
X85375568Y-95969928D01*
X85375568Y-95969928D02*
X85399378Y-96017547D01*
X85399378Y-96017547D02*
X85399378Y-96065166D01*
X85399378Y-96065166D02*
X85375568Y-96136595D01*
X85375568Y-96136595D02*
X85089854Y-96422309D01*
X85089854Y-96422309D02*
X85399378Y-96422309D01*
X79903002Y-61157690D02*
X80069668Y-61395785D01*
X80188716Y-61157690D02*
X80188716Y-61657690D01*
X80188716Y-61657690D02*
X79998240Y-61657690D01*
X79998240Y-61657690D02*
X79950621Y-61633880D01*
X79950621Y-61633880D02*
X79926811Y-61610071D01*
X79926811Y-61610071D02*
X79903002Y-61562452D01*
X79903002Y-61562452D02*
X79903002Y-61491023D01*
X79903002Y-61491023D02*
X79926811Y-61443404D01*
X79926811Y-61443404D02*
X79950621Y-61419595D01*
X79950621Y-61419595D02*
X79998240Y-61395785D01*
X79998240Y-61395785D02*
X80188716Y-61395785D01*
X79736335Y-61657690D02*
X79403002Y-61157690D01*
X79403002Y-61657690D02*
X79736335Y-61157690D01*
X74389855Y-95922309D02*
X74556521Y-96422309D01*
X74556521Y-96422309D02*
X74723188Y-95922309D01*
X74889854Y-96422309D02*
X74889854Y-95922309D01*
X74889854Y-95922309D02*
X75080330Y-95922309D01*
X75080330Y-95922309D02*
X75127949Y-95946119D01*
X75127949Y-95946119D02*
X75151759Y-95969928D01*
X75151759Y-95969928D02*
X75175568Y-96017547D01*
X75175568Y-96017547D02*
X75175568Y-96088976D01*
X75175568Y-96088976D02*
X75151759Y-96136595D01*
X75151759Y-96136595D02*
X75127949Y-96160404D01*
X75127949Y-96160404D02*
X75080330Y-96184214D01*
X75080330Y-96184214D02*
X74889854Y-96184214D01*
X97816811Y-61347690D02*
X98102525Y-61347690D01*
X97959668Y-61347690D02*
X97959668Y-61847690D01*
X97959668Y-61847690D02*
X98007287Y-61776261D01*
X98007287Y-61776261D02*
X98054906Y-61728642D01*
X98054906Y-61728642D02*
X98102525Y-61704833D01*
X97388240Y-61847690D02*
X97483478Y-61847690D01*
X97483478Y-61847690D02*
X97531097Y-61823880D01*
X97531097Y-61823880D02*
X97554907Y-61800071D01*
X97554907Y-61800071D02*
X97602526Y-61728642D01*
X97602526Y-61728642D02*
X97626335Y-61633404D01*
X97626335Y-61633404D02*
X97626335Y-61442928D01*
X97626335Y-61442928D02*
X97602526Y-61395309D01*
X97602526Y-61395309D02*
X97578716Y-61371500D01*
X97578716Y-61371500D02*
X97531097Y-61347690D01*
X97531097Y-61347690D02*
X97435859Y-61347690D01*
X97435859Y-61347690D02*
X97388240Y-61371500D01*
X97388240Y-61371500D02*
X97364431Y-61395309D01*
X97364431Y-61395309D02*
X97340621Y-61442928D01*
X97340621Y-61442928D02*
X97340621Y-61561976D01*
X97340621Y-61561976D02*
X97364431Y-61609595D01*
X97364431Y-61609595D02*
X97388240Y-61633404D01*
X97388240Y-61633404D02*
X97435859Y-61657214D01*
X97435859Y-61657214D02*
X97531097Y-61657214D01*
X97531097Y-61657214D02*
X97578716Y-61633404D01*
X97578716Y-61633404D02*
X97602526Y-61609595D01*
X97602526Y-61609595D02*
X97626335Y-61561976D01*
X76879855Y-95952309D02*
X77046521Y-96452309D01*
X77046521Y-96452309D02*
X77213188Y-95952309D01*
X77379854Y-96452309D02*
X77379854Y-95952309D01*
X77379854Y-95952309D02*
X77665568Y-96452309D01*
X77665568Y-96452309D02*
X77665568Y-95952309D01*
X77610144Y-61677690D02*
X77324430Y-61677690D01*
X77467287Y-61177690D02*
X77467287Y-61677690D01*
X77205383Y-61677690D02*
X76872050Y-61177690D01*
X76872050Y-61677690D02*
X77205383Y-61177690D01*
X72482525Y-61610071D02*
X72458716Y-61633880D01*
X72458716Y-61633880D02*
X72411097Y-61657690D01*
X72411097Y-61657690D02*
X72292049Y-61657690D01*
X72292049Y-61657690D02*
X72244430Y-61633880D01*
X72244430Y-61633880D02*
X72220621Y-61610071D01*
X72220621Y-61610071D02*
X72196811Y-61562452D01*
X72196811Y-61562452D02*
X72196811Y-61514833D01*
X72196811Y-61514833D02*
X72220621Y-61443404D01*
X72220621Y-61443404D02*
X72506335Y-61157690D01*
X72506335Y-61157690D02*
X72196811Y-61157690D01*
X72030145Y-61657690D02*
X71720621Y-61657690D01*
X71720621Y-61657690D02*
X71887288Y-61467214D01*
X71887288Y-61467214D02*
X71815859Y-61467214D01*
X71815859Y-61467214D02*
X71768240Y-61443404D01*
X71768240Y-61443404D02*
X71744431Y-61419595D01*
X71744431Y-61419595D02*
X71720621Y-61371976D01*
X71720621Y-61371976D02*
X71720621Y-61252928D01*
X71720621Y-61252928D02*
X71744431Y-61205309D01*
X71744431Y-61205309D02*
X71768240Y-61181500D01*
X71768240Y-61181500D02*
X71815859Y-61157690D01*
X71815859Y-61157690D02*
X71958716Y-61157690D01*
X71958716Y-61157690D02*
X72006335Y-61181500D01*
X72006335Y-61181500D02*
X72030145Y-61205309D01*
X85306811Y-61643880D02*
X85354430Y-61667690D01*
X85354430Y-61667690D02*
X85425859Y-61667690D01*
X85425859Y-61667690D02*
X85497287Y-61643880D01*
X85497287Y-61643880D02*
X85544906Y-61596261D01*
X85544906Y-61596261D02*
X85568716Y-61548642D01*
X85568716Y-61548642D02*
X85592525Y-61453404D01*
X85592525Y-61453404D02*
X85592525Y-61381976D01*
X85592525Y-61381976D02*
X85568716Y-61286738D01*
X85568716Y-61286738D02*
X85544906Y-61239119D01*
X85544906Y-61239119D02*
X85497287Y-61191500D01*
X85497287Y-61191500D02*
X85425859Y-61167690D01*
X85425859Y-61167690D02*
X85378240Y-61167690D01*
X85378240Y-61167690D02*
X85306811Y-61191500D01*
X85306811Y-61191500D02*
X85283002Y-61215309D01*
X85283002Y-61215309D02*
X85283002Y-61381976D01*
X85283002Y-61381976D02*
X85378240Y-61381976D01*
X85068716Y-61167690D02*
X85068716Y-61667690D01*
X85068716Y-61667690D02*
X84783002Y-61167690D01*
X84783002Y-61167690D02*
X84783002Y-61667690D01*
X84544906Y-61167690D02*
X84544906Y-61667690D01*
X84544906Y-61667690D02*
X84425858Y-61667690D01*
X84425858Y-61667690D02*
X84354430Y-61643880D01*
X84354430Y-61643880D02*
X84306811Y-61596261D01*
X84306811Y-61596261D02*
X84283001Y-61548642D01*
X84283001Y-61548642D02*
X84259192Y-61453404D01*
X84259192Y-61453404D02*
X84259192Y-61381976D01*
X84259192Y-61381976D02*
X84283001Y-61286738D01*
X84283001Y-61286738D02*
X84306811Y-61239119D01*
X84306811Y-61239119D02*
X84354430Y-61191500D01*
X84354430Y-61191500D02*
X84425858Y-61167690D01*
X84425858Y-61167690D02*
X84544906Y-61167690D01*
X82053664Y-95922309D02*
X82363188Y-95922309D01*
X82363188Y-95922309D02*
X82196521Y-96112785D01*
X82196521Y-96112785D02*
X82267950Y-96112785D01*
X82267950Y-96112785D02*
X82315569Y-96136595D01*
X82315569Y-96136595D02*
X82339378Y-96160404D01*
X82339378Y-96160404D02*
X82363188Y-96208023D01*
X82363188Y-96208023D02*
X82363188Y-96327071D01*
X82363188Y-96327071D02*
X82339378Y-96374690D01*
X82339378Y-96374690D02*
X82315569Y-96398500D01*
X82315569Y-96398500D02*
X82267950Y-96422309D01*
X82267950Y-96422309D02*
X82125093Y-96422309D01*
X82125093Y-96422309D02*
X82077474Y-96398500D01*
X82077474Y-96398500D02*
X82053664Y-96374690D01*
X82815568Y-95922309D02*
X82577473Y-95922309D01*
X82577473Y-95922309D02*
X82553664Y-96160404D01*
X82553664Y-96160404D02*
X82577473Y-96136595D01*
X82577473Y-96136595D02*
X82625092Y-96112785D01*
X82625092Y-96112785D02*
X82744140Y-96112785D01*
X82744140Y-96112785D02*
X82791759Y-96136595D01*
X82791759Y-96136595D02*
X82815568Y-96160404D01*
X82815568Y-96160404D02*
X82839378Y-96208023D01*
X82839378Y-96208023D02*
X82839378Y-96327071D01*
X82839378Y-96327071D02*
X82815568Y-96374690D01*
X82815568Y-96374690D02*
X82791759Y-96398500D01*
X82791759Y-96398500D02*
X82744140Y-96422309D01*
X82744140Y-96422309D02*
X82625092Y-96422309D01*
X82625092Y-96422309D02*
X82577473Y-96398500D01*
X82577473Y-96398500D02*
X82553664Y-96374690D01*
X108026811Y-61367690D02*
X108312525Y-61367690D01*
X108169668Y-61367690D02*
X108169668Y-61867690D01*
X108169668Y-61867690D02*
X108217287Y-61796261D01*
X108217287Y-61796261D02*
X108264906Y-61748642D01*
X108264906Y-61748642D02*
X108312525Y-61724833D01*
X107574431Y-61867690D02*
X107812526Y-61867690D01*
X107812526Y-61867690D02*
X107836335Y-61629595D01*
X107836335Y-61629595D02*
X107812526Y-61653404D01*
X107812526Y-61653404D02*
X107764907Y-61677214D01*
X107764907Y-61677214D02*
X107645859Y-61677214D01*
X107645859Y-61677214D02*
X107598240Y-61653404D01*
X107598240Y-61653404D02*
X107574431Y-61629595D01*
X107574431Y-61629595D02*
X107550621Y-61581976D01*
X107550621Y-61581976D02*
X107550621Y-61462928D01*
X107550621Y-61462928D02*
X107574431Y-61415309D01*
X107574431Y-61415309D02*
X107598240Y-61391500D01*
X107598240Y-61391500D02*
X107645859Y-61367690D01*
X107645859Y-61367690D02*
X107764907Y-61367690D01*
X107764907Y-61367690D02*
X107812526Y-61391500D01*
X107812526Y-61391500D02*
X107836335Y-61415309D01*
X79473664Y-95922309D02*
X79783188Y-95922309D01*
X79783188Y-95922309D02*
X79616521Y-96112785D01*
X79616521Y-96112785D02*
X79687950Y-96112785D01*
X79687950Y-96112785D02*
X79735569Y-96136595D01*
X79735569Y-96136595D02*
X79759378Y-96160404D01*
X79759378Y-96160404D02*
X79783188Y-96208023D01*
X79783188Y-96208023D02*
X79783188Y-96327071D01*
X79783188Y-96327071D02*
X79759378Y-96374690D01*
X79759378Y-96374690D02*
X79735569Y-96398500D01*
X79735569Y-96398500D02*
X79687950Y-96422309D01*
X79687950Y-96422309D02*
X79545093Y-96422309D01*
X79545093Y-96422309D02*
X79497474Y-96398500D01*
X79497474Y-96398500D02*
X79473664Y-96374690D01*
X80211759Y-96088976D02*
X80211759Y-96422309D01*
X80092711Y-95898500D02*
X79973664Y-96255642D01*
X79973664Y-96255642D02*
X80283187Y-96255642D01*
D12*
G36*
X87504815Y-77508220D02*
G01*
X87504815Y-77820851D01*
X85350593Y-77820851D01*
X85350593Y-79258953D01*
X86977250Y-79258953D01*
X86977250Y-79571584D01*
X85350593Y-79571584D01*
X85350593Y-81322316D01*
X87546825Y-81322316D01*
X87546825Y-81634947D01*
X84980321Y-81634947D01*
X84980321Y-77508220D01*
X87504815Y-77508220D01*
G37*
G36*
X90878297Y-78393356D02*
G01*
X90507048Y-78510593D01*
X90422417Y-78293875D01*
X90314459Y-78113889D01*
X90154117Y-77946392D01*
X89960184Y-77831788D01*
X89732661Y-77770079D01*
X89562317Y-77758325D01*
X89353550Y-77772430D01*
X89148612Y-77822018D01*
X88958065Y-77918990D01*
X88877460Y-77984005D01*
X88748866Y-78146762D01*
X88679623Y-78341943D01*
X88666434Y-78490076D01*
X88688950Y-78702816D01*
X88765730Y-78896497D01*
X88896999Y-79047927D01*
X89066553Y-79152214D01*
X89252678Y-79229812D01*
X89453934Y-79292948D01*
X89567202Y-79322456D01*
X89732310Y-79369351D01*
X89958072Y-79432501D01*
X90159697Y-79501661D01*
X90369784Y-79592588D01*
X90545112Y-79692171D01*
X90705730Y-79819290D01*
X90760084Y-79877376D01*
X90870336Y-80048536D01*
X90934650Y-80234232D01*
X90965889Y-80449911D01*
X90969156Y-80555394D01*
X90954661Y-80754868D01*
X90901113Y-80965795D01*
X90808108Y-81153254D01*
X90675646Y-81317245D01*
X90556874Y-81420013D01*
X90384421Y-81528125D01*
X90189342Y-81609683D01*
X89971635Y-81664688D01*
X89767021Y-81690699D01*
X89583810Y-81697473D01*
X89372395Y-81687066D01*
X89174856Y-81655845D01*
X88961932Y-81593114D01*
X88767894Y-81502052D01*
X88616608Y-81401451D01*
X88459621Y-81258630D01*
X88326692Y-81091018D01*
X88217821Y-80898616D01*
X88142294Y-80709928D01*
X88133008Y-80681423D01*
X88504257Y-80541716D01*
X88569760Y-80739324D01*
X88679244Y-80949282D01*
X88819402Y-81118072D01*
X88990234Y-81245694D01*
X89191739Y-81332147D01*
X89423918Y-81377432D01*
X89577948Y-81384842D01*
X89798279Y-81372781D01*
X89992524Y-81336597D01*
X90182575Y-81265705D01*
X90355657Y-81148291D01*
X90372226Y-81132784D01*
X90491258Y-80975918D01*
X90560881Y-80787421D01*
X90581298Y-80588611D01*
X90563678Y-80390379D01*
X90494286Y-80188816D01*
X90372253Y-80032044D01*
X90358548Y-80020013D01*
X90192864Y-79911249D01*
X90014292Y-79830283D01*
X89824482Y-79763845D01*
X89603350Y-79701521D01*
X89460712Y-79660488D01*
X89253950Y-79601612D01*
X89068416Y-79536726D01*
X88873796Y-79450928D01*
X88685375Y-79339891D01*
X88520984Y-79198566D01*
X88504257Y-79179818D01*
X88390913Y-79007131D01*
X88324795Y-78822672D01*
X88292681Y-78610702D01*
X88289323Y-78507662D01*
X88306807Y-78308208D01*
X88369608Y-78100525D01*
X88478083Y-77914458D01*
X88610464Y-77769380D01*
X88654710Y-77730969D01*
X88816404Y-77619812D01*
X88998013Y-77535957D01*
X89199537Y-77479403D01*
X89420976Y-77450151D01*
X89556455Y-77445694D01*
X89792958Y-77460501D01*
X90009098Y-77504923D01*
X90204874Y-77578959D01*
X90380286Y-77682609D01*
X90535334Y-77815874D01*
X90670019Y-77978754D01*
X90784340Y-78171248D01*
X90878297Y-78393356D01*
G37*
G36*
X93503083Y-77516497D02*
G01*
X93705771Y-77541326D01*
X93924250Y-77592972D01*
X94115732Y-77668455D01*
X94305008Y-77786644D01*
X94374878Y-77847229D01*
X94506952Y-78005560D01*
X94601291Y-78192344D01*
X94657894Y-78407583D01*
X94676467Y-78619259D01*
X94676762Y-78651277D01*
X94662199Y-78860081D01*
X94608397Y-79079551D01*
X94514951Y-79273027D01*
X94381862Y-79440511D01*
X94262526Y-79544228D01*
X94086106Y-79652340D01*
X93884255Y-79733898D01*
X93690998Y-79782670D01*
X93479056Y-79811934D01*
X93248430Y-79821688D01*
X92330077Y-79821688D01*
X92330077Y-81634947D01*
X91959805Y-81634947D01*
X91959805Y-79509057D01*
X92330077Y-79509057D01*
X93225959Y-79509057D01*
X93475316Y-79495700D01*
X93691425Y-79455629D01*
X93914807Y-79367974D01*
X94086240Y-79238578D01*
X94205723Y-79067441D01*
X94273257Y-78854563D01*
X94289881Y-78654207D01*
X94273777Y-78458890D01*
X94208351Y-78251364D01*
X94092598Y-78084530D01*
X93926518Y-77958387D01*
X93710110Y-77872936D01*
X93500748Y-77833872D01*
X93259176Y-77820851D01*
X92330077Y-77820851D01*
X92330077Y-79509057D01*
X91959805Y-79509057D01*
X91959805Y-77508220D01*
X93281647Y-77508220D01*
X93503083Y-77516497D01*
G37*
G36*
X95431961Y-78307383D02*
G01*
X95521171Y-78114125D01*
X95631507Y-77946636D01*
X95780889Y-77789011D01*
X95915562Y-77688960D01*
X96099965Y-77593648D01*
X96302687Y-77533637D01*
X96500798Y-77509809D01*
X96570132Y-77508220D01*
X96781948Y-77522993D01*
X96975438Y-77567312D01*
X97174130Y-77654140D01*
X97348886Y-77779559D01*
X97388835Y-77816943D01*
X97522958Y-77979128D01*
X97613187Y-78162333D01*
X97659520Y-78366558D01*
X97666294Y-78489099D01*
X97647824Y-78702581D01*
X97592415Y-78893497D01*
X97487524Y-79079159D01*
X97432798Y-79145624D01*
X97278388Y-79279013D01*
X97091885Y-79379616D01*
X96894487Y-79442623D01*
X96894487Y-79478771D01*
X97101055Y-79541297D01*
X97281123Y-79629225D01*
X97452024Y-79758506D01*
X97561758Y-79881284D01*
X97667374Y-80058989D01*
X97733873Y-80257494D01*
X97760277Y-80453931D01*
X97762038Y-80523154D01*
X97748917Y-80725902D01*
X97700444Y-80941518D01*
X97616255Y-81134600D01*
X97496349Y-81305150D01*
X97388835Y-81413175D01*
X97217803Y-81537555D01*
X97026134Y-81626399D01*
X96813826Y-81679705D01*
X96611126Y-81697196D01*
X96580879Y-81697473D01*
X96367426Y-81685154D01*
X96171101Y-81648197D01*
X95949780Y-81567354D01*
X95755220Y-81448014D01*
X95587422Y-81290176D01*
X95446386Y-81093842D01*
X95352826Y-80909057D01*
X95690858Y-80759581D01*
X95779928Y-80943395D01*
X95895752Y-81108298D01*
X96043656Y-81241865D01*
X96072854Y-81260767D01*
X96253317Y-81341101D01*
X96451383Y-81378905D01*
X96580879Y-81384842D01*
X96788350Y-81363977D01*
X96987332Y-81291849D01*
X97153112Y-81168201D01*
X97196371Y-81121060D01*
X97307616Y-80947308D01*
X97372684Y-80743079D01*
X97391765Y-80530969D01*
X97374058Y-80319699D01*
X97311805Y-80115303D01*
X97204729Y-79946145D01*
X97108444Y-79852951D01*
X96929192Y-79744244D01*
X96734911Y-79680832D01*
X96536005Y-79651843D01*
X96399162Y-79646810D01*
X96083601Y-79646810D01*
X96083601Y-79321479D01*
X96366922Y-79321479D01*
X96565902Y-79309838D01*
X96765601Y-79268027D01*
X96954937Y-79184642D01*
X97091835Y-79078213D01*
X97210867Y-78918639D01*
X97280490Y-78726049D01*
X97300907Y-78522316D01*
X97277819Y-78318660D01*
X97199086Y-78130561D01*
X97064480Y-77980097D01*
X96885766Y-77876991D01*
X96689601Y-77828471D01*
X96561340Y-77820851D01*
X96350680Y-77845580D01*
X96164201Y-77919769D01*
X96053315Y-77996706D01*
X95912293Y-78148642D01*
X95813604Y-78326100D01*
X95769993Y-78446113D01*
X95431961Y-78307383D01*
G37*
G36*
X98543615Y-78602428D02*
G01*
X98594494Y-78398569D01*
X98662134Y-78214906D01*
X98762231Y-78026158D01*
X98885143Y-77864899D01*
X99008653Y-77748555D01*
X99186534Y-77632377D01*
X99386054Y-77554222D01*
X99581570Y-77516669D01*
X99739428Y-77508220D01*
X99955251Y-77523180D01*
X100150504Y-77568060D01*
X100348462Y-77655987D01*
X100519555Y-77782993D01*
X100558130Y-77820851D01*
X100689420Y-77991150D01*
X100777742Y-78188807D01*
X100820179Y-78387468D01*
X100829728Y-78550648D01*
X100814349Y-78749421D01*
X100761188Y-78959584D01*
X100680877Y-79139106D01*
X100635310Y-79215966D01*
X100508880Y-79386145D01*
X100379344Y-79534214D01*
X100222506Y-79696028D01*
X100066343Y-79845665D01*
X99980740Y-79924270D01*
X99789787Y-80098919D01*
X99613582Y-80273599D01*
X99452122Y-80448309D01*
X99305408Y-80623049D01*
X99173441Y-80797820D01*
X99056219Y-80972622D01*
X98953744Y-81147454D01*
X98866015Y-81322316D01*
X100835590Y-81322316D01*
X100835590Y-81634947D01*
X98511375Y-81634947D01*
X98511375Y-81355533D01*
X98606690Y-81146141D01*
X98718248Y-80938061D01*
X98846048Y-80731294D01*
X98990091Y-80525840D01*
X99150375Y-80321699D01*
X99281247Y-80169455D01*
X99421256Y-80017949D01*
X99570400Y-79867181D01*
X99728681Y-79717152D01*
X99890511Y-79560772D01*
X100030153Y-79416963D01*
X100165026Y-79265073D01*
X100294057Y-79094928D01*
X100335380Y-79028387D01*
X100415714Y-78845853D01*
X100455094Y-78647517D01*
X100459456Y-78550648D01*
X100437130Y-78340142D01*
X100361001Y-78145610D01*
X100230844Y-77989867D01*
X100054983Y-77880436D01*
X99860878Y-77828939D01*
X99733566Y-77820851D01*
X99530792Y-77842222D01*
X99322788Y-77924288D01*
X99153322Y-78067903D01*
X99041538Y-78234598D01*
X98956516Y-78444036D01*
X98907766Y-78642362D01*
X98898255Y-78696217D01*
X98543615Y-78602428D01*
G37*
D11*
X94827474Y-95969928D02*
X94851283Y-95946119D01*
X94851283Y-95946119D02*
X94898902Y-95922309D01*
X94898902Y-95922309D02*
X95017950Y-95922309D01*
X95017950Y-95922309D02*
X95065569Y-95946119D01*
X95065569Y-95946119D02*
X95089378Y-95969928D01*
X95089378Y-95969928D02*
X95113188Y-96017547D01*
X95113188Y-96017547D02*
X95113188Y-96065166D01*
X95113188Y-96065166D02*
X95089378Y-96136595D01*
X95089378Y-96136595D02*
X94803664Y-96422309D01*
X94803664Y-96422309D02*
X95113188Y-96422309D01*
X95279854Y-95922309D02*
X95613187Y-95922309D01*
X95613187Y-95922309D02*
X95398902Y-96422309D01*
X112503664Y-95932309D02*
X112813188Y-95932309D01*
X112813188Y-95932309D02*
X112646521Y-96122785D01*
X112646521Y-96122785D02*
X112717950Y-96122785D01*
X112717950Y-96122785D02*
X112765569Y-96146595D01*
X112765569Y-96146595D02*
X112789378Y-96170404D01*
X112789378Y-96170404D02*
X112813188Y-96218023D01*
X112813188Y-96218023D02*
X112813188Y-96337071D01*
X112813188Y-96337071D02*
X112789378Y-96384690D01*
X112789378Y-96384690D02*
X112765569Y-96408500D01*
X112765569Y-96408500D02*
X112717950Y-96432309D01*
X112717950Y-96432309D02*
X112575093Y-96432309D01*
X112575093Y-96432309D02*
X112527474Y-96408500D01*
X112527474Y-96408500D02*
X112503664Y-96384690D01*
X113027473Y-96384690D02*
X113051283Y-96408500D01*
X113051283Y-96408500D02*
X113027473Y-96432309D01*
X113027473Y-96432309D02*
X113003664Y-96408500D01*
X113003664Y-96408500D02*
X113027473Y-96384690D01*
X113027473Y-96384690D02*
X113027473Y-96432309D01*
X113217949Y-95932309D02*
X113527473Y-95932309D01*
X113527473Y-95932309D02*
X113360806Y-96122785D01*
X113360806Y-96122785D02*
X113432235Y-96122785D01*
X113432235Y-96122785D02*
X113479854Y-96146595D01*
X113479854Y-96146595D02*
X113503663Y-96170404D01*
X113503663Y-96170404D02*
X113527473Y-96218023D01*
X113527473Y-96218023D02*
X113527473Y-96337071D01*
X113527473Y-96337071D02*
X113503663Y-96384690D01*
X113503663Y-96384690D02*
X113479854Y-96408500D01*
X113479854Y-96408500D02*
X113432235Y-96432309D01*
X113432235Y-96432309D02*
X113289378Y-96432309D01*
X113289378Y-96432309D02*
X113241759Y-96408500D01*
X113241759Y-96408500D02*
X113217949Y-96384690D01*
X113670330Y-95932309D02*
X113836996Y-96432309D01*
X113836996Y-96432309D02*
X114003663Y-95932309D01*
M02*
