M48
; DRILL file {KiCad 8.0.2} date 2024-09-05T16:45:13+0900
; FORMAT={-:-/ absolute / metric / decimal}
; #@! TF.CreationDate,2024-09-05T16:45:13+09:00
; #@! TF.GenerationSoftware,Kicad,Pcbnew,8.0.2
; #@! TF.FileFunction,Plated,1,2,PTH
FMAT,2
METRIC
; #@! TA.AperFunction,Plated,PTH,ViaDrill
T1C0.700
%
G90
G05
T1
X69.62Y-63.03
X69.62Y-66.15
X69.64Y-91.77
X69.64Y-94.89
X72.15Y-63.03
X72.16Y-66.17
X72.17Y-91.77
X72.18Y-94.91
X74.69Y-66.19
X74.7Y-63.025
X74.71Y-94.93
X74.72Y-91.765
X77.24Y-63.02
X77.24Y-66.15
X77.26Y-91.76
X77.26Y-94.89
X79.85Y-63.02
X79.85Y-66.14
X79.87Y-91.76
X79.87Y-94.88
X82.38Y-63.02
X82.39Y-66.16
X82.4Y-91.76
X82.41Y-94.9
X84.92Y-66.18
X84.93Y-63.015
X84.94Y-94.92
X84.95Y-91.755
X87.47Y-63.01
X87.47Y-66.14
X87.49Y-91.75
X87.49Y-94.88
X90.11Y-63.01
X90.11Y-66.13
X90.13Y-91.75
X90.13Y-94.87
X92.64Y-63.01
X92.65Y-66.15
X92.66Y-91.75
X92.67Y-94.89
X95.18Y-66.17
X95.19Y-63.005
X95.2Y-94.91
X95.21Y-91.745
X97.73Y-63.0
X97.73Y-66.13
X97.75Y-91.74
X97.75Y-94.87
X100.38Y-63.02
X100.38Y-66.14
X100.4Y-91.76
X100.4Y-94.88
X102.91Y-63.02
X102.92Y-66.16
X102.93Y-91.76
X102.94Y-94.9
X105.45Y-66.18
X105.46Y-63.015
X105.47Y-94.92
X105.48Y-91.755
X108.0Y-63.01
X108.0Y-66.14
X108.02Y-91.75
X108.02Y-94.88
X110.65Y-63.01
X110.65Y-66.13
X110.67Y-91.75
X110.67Y-94.87
X113.18Y-63.01
X113.19Y-66.15
X113.2Y-91.75
X113.21Y-94.89
X115.72Y-66.17
X115.73Y-63.005
X115.74Y-94.91
X115.75Y-91.745
X118.27Y-63.0
X118.27Y-66.13
X118.29Y-91.74
X118.29Y-94.87
M30
